<mxfile host="app.diagrams.net" agent="Mozilla/5.0 (Windows NT 10.0; Win64; x64) AppleWebKit/537.36 (KHTML, like Gecko) Chrome/131.0.0.0 Safari/537.36" version="24.9.2">
  <diagram name="Photography Portfolio" id="aQlqerPRtikkxDLND-0C">
    <mxGraphModel dx="1434" dy="780" grid="1" gridSize="10" guides="1" tooltips="1" connect="1" arrows="1" fold="1" page="1" pageScale="1" pageWidth="850" pageHeight="1100" math="0" shadow="0">
      <root>
        <mxCell id="0" />
        <mxCell id="1" parent="0" />
        <mxCell id="oSZ-akufpvFrCora7NUD-1" value="Navigation Bar: Home | Gallery | About Us | Contact Us" style="rounded=0;whiteSpace=wrap;html=1;fillColor=#00fff2;strokeColor=#000000;" vertex="1" parent="1">
          <mxGeometry x="50" y="20" width="700" height="50" as="geometry" />
        </mxCell>
        <mxCell id="oSZ-akufpvFrCora7NUD-7" value="" style="edgeStyle=orthogonalEdgeStyle;rounded=0;orthogonalLoop=1;jettySize=auto;html=1;" edge="1" parent="1" source="oSZ-akufpvFrCora7NUD-2" target="oSZ-akufpvFrCora7NUD-3">
          <mxGeometry relative="1" as="geometry" />
        </mxCell>
        <mxCell id="oSZ-akufpvFrCora7NUD-2" value="Hero Section: Welcome to My Photography Portfolio" style="rounded=0;whiteSpace=wrap;html=1;fillColor=#f4f4f4;strokeColor=#000000;" vertex="1" parent="1">
          <mxGeometry x="30" y="90" width="250" height="260" as="geometry" />
        </mxCell>
        <mxCell id="oSZ-akufpvFrCora7NUD-8" value="" style="edgeStyle=orthogonalEdgeStyle;rounded=0;orthogonalLoop=1;jettySize=auto;html=1;" edge="1" parent="1" source="oSZ-akufpvFrCora7NUD-3" target="oSZ-akufpvFrCora7NUD-4">
          <mxGeometry relative="1" as="geometry" />
        </mxCell>
        <mxCell id="oSZ-akufpvFrCora7NUD-3" value="Gallery Section: Placeholder Images" style="rounded=0;whiteSpace=wrap;html=1;fillColor=#00fff2;strokeColor=#000000;" vertex="1" parent="1">
          <mxGeometry x="300" y="90" width="250" height="260" as="geometry" />
        </mxCell>
        <mxCell id="oSZ-akufpvFrCora7NUD-9" value="" style="edgeStyle=orthogonalEdgeStyle;rounded=0;orthogonalLoop=1;jettySize=auto;html=1;" edge="1" parent="1" source="oSZ-akufpvFrCora7NUD-4" target="oSZ-akufpvFrCora7NUD-5">
          <mxGeometry relative="1" as="geometry" />
        </mxCell>
        <mxCell id="oSZ-akufpvFrCora7NUD-4" value="About Us Section: Description about the portfolio" style="rounded=0;whiteSpace=wrap;html=1;fillColor=#f4f4f4;strokeColor=#000000;" vertex="1" parent="1">
          <mxGeometry x="570" y="90" width="250" height="260" as="geometry" />
        </mxCell>
        <mxCell id="oSZ-akufpvFrCora7NUD-5" value="Contact Us Section: Name | Email | Message | Submit Button" style="rounded=0;whiteSpace=wrap;html=1;fillColor=#00fff2;strokeColor=#000000;" vertex="1" parent="1">
          <mxGeometry x="570" y="370" width="250" height="260" as="geometry" />
        </mxCell>
      </root>
    </mxGraphModel>
  </diagram>
</mxfile>
